<svg xmlns="http://www.w3.org/2000/svg" width="28" height="28" viewBox="0 0 28 28" xmlns:xlink="http://www.w3.org/1999/xlink">
  <defs>
    <circle id="a" cx="14" cy="14" r="14"/>
  </defs>
  <g fill="none" fill-rule="evenodd">
    <mask id="b" fill="white">
      <use xlink:href="#a"/>
    </mask>
    <use fill="#BDBDBD" xlink:href="#a"/>
    <path fill="#000000" d="M8.66247053,7.91701524 C10.6515834,7.10629204 12.1828327,8.63754134 12.1828327,8.63754134 C12.1828327,8.63754134 17.0193392,3.80103491 17.0193392,3.80103491 C17.0193392,3.80103491 17.6186254,3.14000244 18.2536546,3.11186566 C18.8886839,3.08372888 19.5431554,3.68921003 19.5431554,3.68921003 L26.6032315,10.7492861 C26.6032315,10.7492861 27.0902938,11.2647718 27.1076647,11.8189212 C27.1250355,12.3730706 26.8315675,12.7879893 26.8315675,12.7879893 L26.7677924,20.1858963 C26.7677924,20.1858963 25.3414974,22.3610935 23.1262761,23.8274126 C20.9110547,25.2937317 18.2111759,25.8497683 18.2111759,25.8497683 C18.2111759,25.8497683 15.3886459,26.5338395 12.4532871,25.8755636 C9.51792837,25.2172877 6.76948574,23.2838847 6.76948574,23.2838847 L6.59401316,10.5921334 C6.59401316,10.5921334 6.93308876,8.62187715 8.66247053,7.91701524 Z" opacity=".15" mask="url(#b)" transform="rotate(-45 16.851 14.636)"/>
    <g transform="translate(6 5)" mask="url(#b)">
      <rect width="7.161" height="1" x="7.364" y="8.136" fill="#FFFFFF"/>
      <rect width="7.161" height="1" x="7.364" y="9.38" fill="#FFFFFF"/>
      <rect width="7.161" height="1" x="7.364" y="10.759" fill="#FFFFFF"/>
      <rect width="1" height="4.169" x="13.853" y="2.068" fill="#FFFFFF"/>
      <rect width="1" height="2.555" x="12.34" y="3.681" fill="#FFFFFF"/>
      <rect width="1" height="1.043" x="10.827" y="5.194" fill="#FFFFFF"/>
      <path fill="#FFFFFF" d="M7.72840909 2.10454545L7.72840909 4.00037879 9.62386364 4.00037879C9.5282197 2.99469697 8.73390152 2.20151515 7.72840909 2.10454545zM9.62386364 4.40397727L7.62708333 4.40397727 6.19412879 5.83655303C6.55890152 6.1342803 7.01875 6.32045455 7.52670455 6.32045455 8.62746212 6.32045455 9.52140152 5.4780303 9.62386364 4.40397727zM7.32481061 2.10454545C6.25075758 2.20757576 5.40871212 3.10170455 5.40871212 4.20208333 5.40871212 4.71875 5.60056818 5.18560606 5.90757576 5.5532197L7.32481061 4.13541667 7.32481061 2.10454545 7.32481061 2.10454545z"/>
      <path fill="#FFFFFF" d="M15.0731061,0 L4.85416667,0 C4.00151515,0 3.30700758,0.694507576 3.30700758,1.54715909 L3.30700758,8.70871212 C3.31287879,8.70871212 3.31818182,8.70795455 3.32405303,8.70795455 C3.41780303,8.70795455 3.51003788,8.71382576 3.60170455,8.7219697 C3.51003788,8.71439394 3.41780303,8.70795455 3.32405303,8.70795455 C1.51382576,8.70795455 0.0460227273,10.1753788 0.0460227273,11.9857955 C0.0460227273,13.7962121 1.51382576,15.2638258 3.32405303,15.2638258 C3.41761364,15.2638258 3.5094697,15.2575758 3.60094697,15.2498106 C3.50965909,15.2581439 3.41761364,15.2638258 3.32405303,15.2638258 C3.31818182,15.2638258 3.31287879,15.2630682 3.30700758,15.2630682 L3.30700758,15.4982955 C3.30700758,16.3511364 4.00151515,17.0454545 4.85416667,17.0454545 L12.1153409,17.0454545 C12.4518939,17.0454545 12.76875,16.9200758 13.1143939,16.6299242 C13.4602273,16.3395833 15.9299242,13.8151515 16.182197,13.5032197 C16.5535985,13.044697 16.6204545,12.7757576 16.6204545,12.3388258 L16.6204545,1.54715909 C16.6206439,0.694507576 15.9267045,0 15.0731061,0 Z M3.85643939,8.75511364 C3.80738636,8.7469697 3.75852273,8.73825758 3.70890152,8.73257576 C3.75852273,8.73863636 3.80757576,8.7467803 3.85643939,8.75511364 Z M2.64204545,13.6723485 L1.23181818,12.2621212 L2.0875,11.4064394 L2.66022727,11.9791667 L4.63579545,10.0857955 L5.47367424,10.9596591 L2.64204545,13.6723485 Z M3.70965909,15.2392045 C3.75625,15.2337121 3.80208333,15.2255682 3.84810606,15.2181818 C3.80227273,15.2257576 3.75625,15.2333333 3.70965909,15.2392045 Z M4.85416667,16.2386364 C4.44602273,16.2386364 4.11382576,15.9064394 4.11382576,15.4982955 L4.11382576,15.1640152 C4.11268939,15.1642045 4.11155303,15.1643939 4.11060606,15.1647727 C5.54034091,14.8119318 6.60189394,13.5244318 6.60189394,11.9857955 C6.60189394,10.4462121 5.53939394,9.15833333 4.10852273,8.80643939 C4.11022727,8.80681818 4.11212121,8.80719697 4.11382576,8.80757576 L4.11382576,1.54715909 C4.11382576,1.13901515 4.44583333,0.806818182 4.85416667,0.806818182 L15.0731061,0.806818182 C15.4816288,0.806818182 15.813447,1.13882576 15.813447,1.54715909 L15.8168561,12.5765152 C15.7984848,12.6534091 15.7352273,12.7689394 15.6392045,12.9109848 L13.7301136,12.9109848 C13.0988636,12.9109848 12.5861742,13.4231061 12.5861742,14.0545455 L12.5861742,16.0503788 C12.4494318,16.149053 12.3376894,16.2151515 12.2602273,16.2386364 L4.85416667,16.2386364 Z"/>
    </g>
  </g>
</svg>
