<svg xmlns="http://www.w3.org/2000/svg" width="28" height="28" viewBox="0 0 28 28" xmlns:xlink="http://www.w3.org/1999/xlink">
  <defs>
    <circle id="a" cx="15" cy="15" r="14"/>
  </defs>
  <g fill="none" fill-rule="evenodd" transform="translate(-1 -1)">
    <use fill="#FFC107" xlink:href="#a"/>
    <path fill="#000000" d="M7.03893557,9.54212761 C7.86308786,8.71797532 11.3375958,5.30509751 11.3375958,5.30509751 L12.1932647,4.44942862 C12.1932647,4.44942862 12.2463802,4.3963131 12.4201123,4.37546041 C12.5478036,4.36013389 13.7980475,4.08726214 13.7980475,4.08726214 C13.7980475,4.08726214 13.9079261,4.07037099 14.1641423,4.15695571 C14.4203586,4.24354043 20.9295538,6.438528 22.2605884,6.84548088 C23.591623,7.25243375 23.8586877,8.33744312 23.8586877,8.33744312 L26.6707734,16.8027861 C26.6707734,16.8027861 26.6982417,16.9129803 26.6884629,16.9776775 C26.6786841,17.0423747 26.3918895,18.379298 26.3918895,18.379298 L24.5316332,25.7820064 C24.5316332,25.7820064 23.6488618,26.5229614 21.9388027,27.2975254 C20.2287437,28.0720893 18.2478084,28.4930345 16.1160909,28.4788995 C13.9843733,28.4647645 13.2968472,28.4308514 10.7305841,27.3463699 C8.16432098,26.2618883 6.37636823,24.3844647 6.37636823,24.3844647 L5.82868848,11.1874111 C5.82868848,11.1874111 5.92359204,10.6574711 7.03893557,9.54212761 Z" opacity=".15" transform="rotate(-45 16.26 16.283)"/>
    <path fill="#FFFFFF" d="M24.9925641 10.8236343C24.9925641 10.690524 24.9110256 10.567893 24.7787179 10.5014493 24.6464103 10.4350056 24.4838462 10.4354515 24.3515385 10.5018952L16.0946154 14.6472687C15.6553846 14.8677815 15.3846154 15.2751394 15.3846154 15.716388L15.3846154 24.0073579C15.3846154 24.1400223 15.4658974 24.2626533 15.5982051 24.328874 15.7302564 24.3953177 15.8930769 24.3955407 16.025641 24.329097L23.9669231 20.342252C24.6017949 20.0234114 24.9925641 19.4347826 24.9925641 18.7973244L24.9925641 10.8236343zM5.64846154 10.5016722C5.51615385 10.4354515 5.35358974 10.4352285 5.22128205 10.5016722 5.08897436 10.5681159 5.0074359 10.690524 5.0074359 10.8231884L5.0074359 10.8236343 5.0074359 18.7973244C5.0074359 19.4345596 5.39846154 20.0234114 6.03307692 20.342252L13.974359 24.328874C13.974359 24.328874 13.9746154 24.329097 13.9748718 24.329097 14.1071795 24.3955407 14.27 24.3953177 14.4023077 24.328874 14.534359 24.2624303 14.6153846 24.1395764 14.6153846 24.0071349L14.6153846 15.716165C14.6153846 15.2749164 14.3448718 14.8675585 13.9053846 14.6470457L5.64846154 10.5016722zM23.9669231 9.92263099C24.0992308 9.85641026 24.1805128 9.73377926 24.1807692 9.60111483 24.1807692 9.46845039 24.0997436 9.34559643 23.9674359 9.2793757 23.9674359 9.2793757 23.9671795 9.27915273 23.9669231 9.27915273L16.025641 5.29208473C15.3907692 4.97346711 14.6089744 4.97346711 13.974359 5.29208473L6.03307692 9.2787068C6.03282051 9.2787068 6.0325641 9.27892977 6.0325641 9.27892977 5.90025641 9.34537347 5.81897436 9.46822742 5.81897436 9.60089186 5.81923077 9.73377926 5.90076923 9.85596433 6.03307692 9.92240803L14.29 14.0680045C14.7292308 14.2885173 15.2705128 14.2885173 15.7097436 14.0680045L23.9669231 9.92263099z"/>
  </g>
</svg>
