<svg xmlns="http://www.w3.org/2000/svg" width="28" height="28" viewBox="0 0 28 28" xmlns:xlink="http://www.w3.org/1999/xlink">
  <defs>
    <circle id="a" cx="14" cy="14" r="14"/>
    <circle id="b" cx="14" cy="14" r="14"/>
  </defs>
  <g fill="none" fill-rule="evenodd">
    <use fill="#BDBDBD" xlink:href="#a"/>
    <mask id="c" fill="white">
      <use xlink:href="#b"/>
    </mask>
    <use fill="#BDBDBD" xlink:href="#b"/>
    <polygon fill="#000000" points="20.616 12.689 26.775 14.213 26.461 27.655 10.571 27.655 10.763 10.093" opacity=".15" mask="url(#c)" transform="rotate(-45 18.673 18.874)"/>
    <g transform="translate(4 4)">
      <g fill="#FFFFFF" transform="translate(2.5 1.667)">
        <path d="M14.3611111,11.2222222 C12.25,10 10.1388889,8.77777778 8.02777778,7.55555556 C8.19444444,7.86111111 8.36111111,8.16666667 8.55555556,8.44444444 L8.55555556,8.41666667 C8.55555556,8.05555556 8.36111111,7.69444444 8.02777778,7.52777778 C5.91666667,6.30555556 3.80555556,5.08333333 1.69444444,3.86111111 C0.527777778,3.19444444 -0.527777778,5 0.638888889,5.66666667 C2.75,6.88888889 4.86111111,8.11111111 6.97222222,9.33333333 C6.80555556,9.02777778 6.63888889,8.72222222 6.44444444,8.44444444 L6.44444444,8.47222222 C6.44444444,8.83333333 6.63888889,9.19444444 6.97222222,9.36111111 C9.08333333,10.5833333 11.1944444,11.8055556 13.3055556,13.0277778 C14.4722222,13.6944444 15.5277778,11.8888889 14.3611111,11.2222222 L14.3611111,11.2222222 Z"/>
        <path d="M8.55555556,8.44444444 L8.55555556,1.13888889 C8.55555556,-0.194444444 6.47222222,-0.194444444 6.47222222,1.13888889 L6.47222222,8.44444444 C6.47222222,9.77777778 8.55555556,9.77777778 8.55555556,8.44444444 L8.55555556,8.44444444 Z"/>
        <path d="M8.55555556,15.7777778 L8.55555556,8.47222222 C8.55555556,7.13888889 6.47222222,7.13888889 6.47222222,8.47222222 L6.47222222,15.7777778 C6.47222222,17.1111111 8.55555556,17.1111111 8.55555556,15.7777778 L8.55555556,15.7777778 Z"/>
        <path d="M1.69444444,13.0277778 C5.91666667,10.5833333 10.1388889,8.13888889 14.3611111,5.72222222 C15.5277778,5.05555556 14.4722222,3.25 13.3055556,3.91666667 C9.08333333,6.36111111 4.86111111,8.80555556 0.638888889,11.2222222 C-0.527777778,11.8888889 0.527777778,13.6944444 1.69444444,13.0277778 L1.69444444,13.0277778 Z"/>
      </g>
      <rect width="20" height="20"/>
    </g>
  </g>
</svg>
