<svg xmlns="http://www.w3.org/2000/svg" width="28" height="28" viewBox="0 0 28 28" xmlns:xlink="http://www.w3.org/1999/xlink">
  <defs>
    <circle id="a" cx="14" cy="14" r="14"/>
  </defs>
  <g fill="none" fill-rule="evenodd">
    <mask id="b" fill="white">
      <use xlink:href="#a"/>
    </mask>
    <use fill="#C5CAE9" xlink:href="#a"/>
    <path fill="#000000" d="M16.6559926,13.5323516 C21.5876512,12.5986432 18.3505732,10.4575847 20.7007953,9.48754885 C23.0510174,8.51751301 26.1203767,9.62600091 26.1203767,9.62600091 L26.1203767,29.202736 L8.12037667,29.202736 L7.99583348,11.6342463 C7.99583348,11.6342463 11.7243339,14.4660599 16.6559926,13.5323516 Z" opacity=".15" mask="url(#b)" transform="rotate(-45 17.058 19.146)"/>
    <g fill="#3F51B5" transform="translate(4.833 4.833)" mask="url(#b)">
      <path d="M15.3137255,11.8627451 C15.3613922,11.8627451 15.4073333,11.8677059 15.4539216,11.8698627 C14.3994314,11.5023333 13.1122157,11.3916863 12.0523333,11.0862745 C11.7264314,10.9918039 11.1999412,10.7739608 11.095549,10.4914118 C11.004098,10.2412157 11.095549,9.86894118 11.0314902,9.53419608 C11.5741569,8.84356863 11.9207647,7.95882353 12.136451,6.94186275 C12.3053333,6.75443137 12.5108824,6.62868627 12.6797647,6.26201961 C12.7662549,6.07221569 13.0994902,5.33737255 12.9873333,5.10313725 C12.9293137,4.98364706 12.8033529,4.9232549 12.7116863,4.85984314 C13.3233725,1.97719608 11.1736275,0.0364509804 8.39817647,0.227333333 C6.05,0.389745098 4.46686275,2.14607843 4.91333333,4.88119608 C4.71037255,4.87515686 4.6042549,5.01707843 4.55227451,5.12470588 C4.44270588,5.35139216 4.75501961,5.94301961 4.85941176,6.17747059 C4.93101961,6.33794118 5.06754902,6.47727451 5.17819608,6.60237255 C5.30264706,6.74278431 5.37684314,6.84760784 5.44456863,6.98478431 C5.54421569,7.18601961 5.55090196,7.48905882 5.63609804,7.77117647 C5.79354902,8.29270588 6.00168627,8.71372549 6.25209804,9.13064706 C6.37805882,9.34180392 6.60366667,9.60105882 6.63429412,9.74707843 C6.6864902,9.9942549 6.65068627,10.3240392 6.59180392,10.4698431 C6.37784314,10.9956863 5.12017647,11.2195686 4.38209804,11.4048431 C2.3037451,11.9285294 0.0970588235,12.0693725 0.216980392,14.7160588 C0.237470588,15.1646863 0.204470588,15.0546863 0.408294118,15.3458627 C0.533823529,15.524451 0.975117647,15.6959216 1.23696078,15.8350392 C3.30841176,16.9281373 5.81878431,17.471451 8.84443137,17.4710196 C10.1238824,17.4710196 11.3127451,17.3715882 12.4138235,17.178549 C12.0665686,16.6393333 11.8627451,16.0004706 11.8627451,15.3137255 C11.8627451,13.4109412 13.4109412,11.8627451 15.3137255,11.8627451 Z"/>
      <path d="M15.3137255,12.2941176 C13.6484118,12.2941176 12.2941176,13.6484118 12.2941176,15.3137255 C12.2941176,16.9790392 13.6484118,18.3333333 15.3137255,18.3333333 C16.9786078,18.3333333 18.3333333,16.9790392 18.3333333,15.3137255 C18.3333333,13.6484118 16.9786078,12.2941176 15.3137255,12.2941176 Z M15.7315098,17.254902 L14.8909804,17.254902 L14.8909804,14.5506275 L15.7312941,14.5506275 L15.7312941,17.254902 L15.7315098,17.254902 Z M15.3053137,14.2184706 C15.040451,14.2184706 14.8629412,14.0303922 14.868549,13.7978824 C14.8629412,13.5550196 15.040451,13.372549 15.3111373,13.372549 C15.5824706,13.372549 15.7539412,13.5550196 15.7593333,13.7978824 C15.7593333,14.0303922 15.5824706,14.2184706 15.3053137,14.2184706 Z"/>
    </g>
  </g>
</svg>
