<svg xmlns="http://www.w3.org/2000/svg" width="28" height="28" viewBox="0 0 28 28" xmlns:xlink="http://www.w3.org/1999/xlink">
  <defs>
    <circle id="a" cx="14" cy="14" r="14"/>
  </defs>
  <g fill="none" fill-rule="evenodd">
    <mask id="b" fill="white">
      <use xlink:href="#a"/>
    </mask>
    <use fill="#BDBDBD" xlink:href="#a"/>
    <polygon fill="#000000" points="15.363 1.658 26.624 12.92 26.332 29.195 7.462 29.195 7.308 9.169" opacity=".15" mask="url(#b)" transform="rotate(-45 16.966 15.427)"/>
    <g fill="#FFFFFF" transform="translate(5 6)" mask="url(#b)">
      <path d="M10.517 12.7966667L10.4661667 12.5633333 7.53366667 12.5633333 7.483 12.7966667C7.3465 13.4245 7.05833333 14.0243333 6.64966667 14.5318333L6.26116667 15.0143333 11.739 15.0143333 11.3503333 14.5318333C10.9416667 14.025 10.6536667 13.4248333 10.517 12.7966667zM16.6463333.652333333L1.35333333.652333333C1.03383333.652333333.773666667.9125.773666667 1.23216667L.773666667 11.4125C.773666667 11.7325 1.03366667 11.9926667 1.35333333 11.9926667L16.6463333 11.9926667C16.9661667 11.9926667 17.2261667 11.7323333 17.2261667 11.4125L17.2261667 1.23233333C17.2261667.9125 16.9661667.652333333 16.6463333.652333333zM16.1075 10.8741667L1.89233333 10.8741667 1.89233333 1.77083333 16.1073333 1.77083333 16.1073333 10.8741667 16.1075 10.8741667z"/>
      <polygon points="14.251 5.419 14.251 3.297 12.129 3.297 12.129 3.771 13.441 3.771 11.174 6.038 7.454 6.038 3.749 9.743 14.251 9.743 14.251 9.269 13.322 9.269 13.322 5.204 11.691 6.835 11.691 9.269 11.148 9.269 11.148 6.967 9.518 6.967 9.518 9.269 8.974 9.269 8.974 6.967 7.838 6.967 7.344 7.462 7.344 9.269 6.8 9.269 6.8 8.005 5.537 9.269 4.894 9.269 7.65 6.513 11.371 6.513 13.777 4.107 13.777 5.419"/>
    </g>
    <rect width="20" height="20" x="4" y="4" mask="url(#b)"/>
  </g>
</svg>
